<svg width="22" height="21" viewBox="0 0 22 21" fill="none" xmlns="http://www.w3.org/2000/svg">
<path d="M6.90543 2.95204L6.91762 5.9041L7.64066 6.32409L8.36776 6.74408L10.4231 5.56083L12.4826 4.38163L12.4948 2.18878L12.5029 -1.96649e-05H9.7001H6.89731L6.90543 2.95204Z" fill="#E51C44"/>
<path d="M15.3463 3.08127L12.8076 4.54316L12.7954 5.39122L12.7873 6.23928L14.014 6.94196C14.6923 7.32965 15.6185 7.86271 16.0775 8.12521L16.9143 8.60577L18.7787 7.53156C19.8024 6.94196 20.6594 6.44524 20.6757 6.42909C20.7082 6.39678 17.9745 1.6436 17.9135 1.62745C17.8973 1.62341 16.7437 2.27763 15.3463 3.08127Z" fill="#E51C44"/>
<path d="M1.37704 6.30398C0.613384 7.62049 -0.00404209 8.69874 1.99285e-05 8.70278C0.0365781 8.73105 5.04504 11.5983 5.08973 11.6145C5.11816 11.6266 5.46343 11.4529 5.84932 11.2308L6.56017 10.8229L6.58455 9.48219C6.6008 8.7472 6.61298 7.68511 6.61298 7.12377V6.09802L6.46269 6.0011C6.1621 5.8113 2.83531 3.9173 2.79875 3.9173C2.77844 3.9173 2.1407 4.99151 1.37704 6.30398Z" fill="#E51C44"/>
<path d="M10.3094 9.01769C9.51734 9.47806 9.53765 9.44172 9.53765 10.3019C9.53765 10.9319 9.54171 10.9803 9.63107 11.1055C9.74887 11.2832 10.8294 11.9132 11.0122 11.9132C11.0934 11.9132 11.3371 11.8001 11.7189 11.5861C12.5192 11.1378 12.5029 11.158 12.5029 10.3059C12.5029 9.44576 12.5151 9.46595 11.723 9.01365C11.3493 8.80365 11.0934 8.6825 11.0162 8.6825C10.939 8.6825 10.6872 8.80365 10.3094 9.01769Z" fill="#E51C44"/>
<path d="M16.1587 9.38521L15.4479 9.79712L15.4397 12.1596L15.4276 14.518L17.3123 15.5962C18.3481 16.1939 19.2133 16.6785 19.2337 16.6785C19.2865 16.6785 22.0202 11.9657 21.9999 11.9092C21.9918 11.885 21.3825 11.5215 20.6472 11.0975C19.908 10.6735 18.7747 10.0233 18.1207 9.6477C17.4667 9.27213 16.9183 8.96522 16.9021 8.96926C16.8858 8.96926 16.5487 9.15502 16.1587 9.38521Z" fill="#E51C44"/>
<path d="M3.25775 13.0682C2.23413 13.6578 1.37704 14.1545 1.36079 14.1707C1.33236 14.1989 3.98485 18.839 4.09453 18.9521C4.11078 18.9723 5.27251 18.3262 6.67797 17.5185L9.23298 16.0526L9.24516 15.2206C9.25329 14.5866 9.2411 14.3766 9.20454 14.3484C9.17611 14.3241 8.31902 13.8274 7.30352 13.2459C6.28802 12.6603 5.38219 12.1434 5.28876 12.0909L5.12628 11.994L3.25775 13.0682Z" fill="#E51C44"/>
<path d="M11.6093 15.0389L9.55794 16.2141L9.54575 18.407L9.53763 20.5958H12.3404H15.1432V17.6518V14.7078L14.5664 14.3726C14.2455 14.1909 13.9124 14.0011 13.8231 13.9486L13.6606 13.8597L11.6093 15.0389Z" fill="#E51C44"/>
</svg>
