<svg width="84" height="26" viewBox="0 0 84 26" fill="none" xmlns="http://www.w3.org/2000/svg">
<path d="M6.90546 5.95204L6.91765 8.9041L7.64069 9.32409L8.36779 9.74408L10.4232 8.56083L12.4826 7.38163L12.4948 5.18878L12.5029 2.99998H9.70013H6.89734L6.90546 5.95204Z" fill="white"/>
<path d="M15.3463 6.08127L12.8075 7.54316L12.7954 8.39122L12.7872 9.23928L14.014 9.94196C14.6923 10.3296 15.6185 10.8627 16.0775 11.1252L16.9142 11.6058L18.7787 10.5316C19.8023 9.94196 20.6594 9.44524 20.6757 9.42909C20.7082 9.39678 17.9744 4.6436 17.9135 4.62745C17.8972 4.62341 16.7436 5.27763 15.3463 6.08127Z" fill="white"/>
<path d="M1.37704 9.30395C0.613384 10.6205 -0.00404209 11.6987 1.99285e-05 11.7027C0.0365781 11.731 5.04504 14.5983 5.08973 14.6144C5.11816 14.6265 5.46343 14.4529 5.84932 14.2308L6.56017 13.8229L6.58455 12.4822C6.6008 11.7472 6.61298 10.6851 6.61298 10.1237V9.09799L6.46269 9.00107C6.1621 8.81127 2.83531 6.91727 2.79875 6.91727C2.77844 6.91727 2.1407 7.99148 1.37704 9.30395Z" fill="white"/>
<path d="M10.3094 12.0177C9.51734 12.4781 9.53765 12.4417 9.53765 13.3019C9.53765 13.9319 9.54171 13.9804 9.63107 14.1056C9.74887 14.2833 10.8294 14.9132 11.0122 14.9132C11.0934 14.9132 11.3371 14.8002 11.7189 14.5861C12.5192 14.1379 12.5029 14.1581 12.5029 13.306C12.5029 12.4458 12.5151 12.466 11.723 12.0137C11.3493 11.8037 11.0934 11.6825 11.0162 11.6825C10.939 11.6825 10.6872 11.8037 10.3094 12.0177Z" fill="white"/>
<path d="M16.1587 12.3852L15.4479 12.7971L15.4397 15.1596L15.4276 17.518L17.3123 18.5962C18.3481 19.1939 19.2133 19.6785 19.2337 19.6785C19.2865 19.6785 22.0202 14.9657 21.9999 14.9092C21.9918 14.885 21.3825 14.5215 20.6472 14.0975C19.908 13.6735 18.7747 13.0233 18.1207 12.6477C17.4667 12.2721 16.9183 11.9652 16.9021 11.9693C16.8858 11.9693 16.5487 12.155 16.1587 12.3852Z" fill="white"/>
<path d="M3.25778 16.0682C2.23416 16.6578 1.37707 17.1545 1.36082 17.1707C1.33239 17.1989 3.98488 21.839 4.09456 21.9521C4.11081 21.9723 5.27254 21.3262 6.678 20.5185L9.23301 19.0526L9.24519 18.2206C9.25332 17.5866 9.24113 17.3766 9.20457 17.3484C9.17614 17.3241 8.31905 16.8274 7.30355 16.2459C6.28805 15.6603 5.38222 15.1434 5.28879 15.0909L5.12631 14.994L3.25778 16.0682Z" fill="white"/>
<path d="M11.6093 18.0389L9.55797 19.2141L9.54578 21.407L9.53766 23.5958H12.3404H15.1432V20.6518V17.7078L14.5664 17.3726C14.2455 17.1909 13.9124 17.0011 13.8231 16.9486L13.6606 16.8597L11.6093 18.0389Z" fill="white"/>
<path d="M24.5957 21V19.3984L26.1289 19.1055V8.68555L24.5957 8.39258V6.78125H31.2559C32.3301 6.78125 33.2513 6.94727 34.0195 7.2793C34.7943 7.61133 35.3835 8.08984 35.7871 8.71484C36.1973 9.33984 36.4023 10.0885 36.4023 10.9609C36.4023 11.7943 36.2005 12.5299 35.7969 13.168C35.3932 13.806 34.8268 14.3073 34.0977 14.6719C33.375 15.0299 32.5352 15.2122 31.5781 15.2188L28.7852 15.2285V19.1055L30.3184 19.3984V21H24.5957ZM33.7949 21L31.2363 14.6523L33.6777 14.1543L35.8652 19.125L37.0273 19.3789V21H33.7949ZM28.7852 13.1777H31.168C32.0469 13.1777 32.6979 12.9987 33.1211 12.6406C33.5443 12.276 33.7559 11.7487 33.7559 11.0586C33.7559 10.3815 33.5475 9.84115 33.1309 9.4375C32.7142 9.03385 32.0892 8.83203 31.2559 8.83203H28.7852V13.1777ZM41.8613 21.2051C40.8001 21.2051 39.9635 20.9284 39.3516 20.375C38.7461 19.8151 38.4434 19.0501 38.4434 18.0801C38.4434 17.416 38.6224 16.8333 38.9805 16.332C39.3451 15.8242 39.8789 15.4303 40.582 15.1504C41.2917 14.8639 42.1543 14.7207 43.1699 14.7207H44.6738V13.8906C44.6738 13.3568 44.5143 12.9271 44.1953 12.6016C43.8828 12.276 43.4206 12.1133 42.8086 12.1133C42.4766 12.1133 42.1771 12.1556 41.9102 12.2402C41.6497 12.3184 41.4154 12.4323 41.207 12.582L40.9824 13.998H39.0488L39.0293 11.3223C39.5632 10.9967 40.1491 10.7363 40.7871 10.541C41.4316 10.3392 42.1478 10.2383 42.9355 10.2383C44.2962 10.2383 45.3672 10.5573 46.1484 11.1953C46.9362 11.8268 47.3301 12.735 47.3301 13.9199V18.4219C47.3301 18.5651 47.3301 18.7051 47.3301 18.8418C47.3366 18.9785 47.3496 19.112 47.3691 19.2422L48.4531 19.3984V21H45.084C45.0124 20.7982 44.944 20.5931 44.8789 20.3848C44.8203 20.1699 44.778 19.9551 44.752 19.7402C44.4069 20.1764 43.9935 20.5312 43.5117 20.8047C43.0365 21.0716 42.4863 21.2051 41.8613 21.2051ZM42.5156 19.2031C42.9648 19.2031 43.3848 19.099 43.7754 18.8906C44.1725 18.6823 44.472 18.4186 44.6738 18.0996V16.3809H43.1602C42.4766 16.3809 41.959 16.5404 41.6074 16.8594C41.2624 17.1719 41.0898 17.543 41.0898 17.9727C41.0898 18.3633 41.2135 18.666 41.4609 18.8809C41.7083 19.0957 42.0599 19.2031 42.5156 19.2031ZM54.5078 21.2051C53.5052 21.2051 52.6361 20.9805 51.9004 20.5312C51.1712 20.0755 50.6081 19.4473 50.2109 18.6465C49.8138 17.8457 49.6152 16.9245 49.6152 15.8828V15.5605C49.6152 14.5319 49.8138 13.6172 50.2109 12.8164C50.6146 12.0156 51.181 11.3874 51.9102 10.9316C52.6393 10.4694 53.4987 10.2383 54.4883 10.2383C55.4193 10.2383 56.2233 10.3848 56.9004 10.6777C57.584 10.9707 58.1374 11.3223 58.5605 11.7324V14.6621H56.5488L56.1777 12.7773C56.0085 12.6081 55.7936 12.4714 55.5332 12.3672C55.2728 12.263 54.9961 12.2109 54.7031 12.2109C54.1758 12.2109 53.7298 12.3509 53.3652 12.6309C53.0072 12.9043 52.7337 13.2917 52.5449 13.793C52.3626 14.2878 52.2715 14.877 52.2715 15.5605V15.8828C52.2715 16.6185 52.3691 17.2305 52.5645 17.7188C52.7598 18.2005 53.0267 18.5618 53.3652 18.8027C53.7103 19.0436 54.0944 19.1641 54.5176 19.1641C55.0514 19.1641 55.4844 19.0241 55.8164 18.7441C56.1484 18.4577 56.3698 18.0573 56.4805 17.543H58.7559L58.7852 17.6016C58.694 18.3177 58.4824 18.9492 58.1504 19.4961C57.8249 20.0365 57.3626 20.4564 56.7637 20.7559C56.1712 21.0553 55.4193 21.2051 54.5078 21.2051ZM59.957 21V19.3984L61.373 19.1055V7.66992L59.8301 7.37695V5.76562H64.0195V11.791C64.3581 11.3027 64.7747 10.9219 65.2695 10.6484C65.7708 10.375 66.3372 10.2383 66.9688 10.2383C68.0495 10.2383 68.8991 10.5898 69.5176 11.293C70.1426 11.9896 70.4551 13.0703 70.4551 14.5352V19.1055L71.8711 19.3984V21H66.4902V19.3984L67.7988 19.1055V14.5156C67.7988 13.7279 67.6458 13.1647 67.3398 12.8262C67.0339 12.4876 66.5846 12.3184 65.9922 12.3184C65.5755 12.3184 65.1979 12.4095 64.8594 12.5918C64.5208 12.7676 64.2409 13.0215 64.0195 13.3535V19.1055L65.3281 19.3984V21H59.957ZM76.3926 21.2051C75.3314 21.2051 74.4948 20.9284 73.8828 20.375C73.2773 19.8151 72.9746 19.0501 72.9746 18.0801C72.9746 17.416 73.1536 16.8333 73.5117 16.332C73.8763 15.8242 74.4102 15.4303 75.1133 15.1504C75.8229 14.8639 76.6855 14.7207 77.7012 14.7207H79.2051V13.8906C79.2051 13.3568 79.0456 12.9271 78.7266 12.6016C78.4141 12.276 77.9518 12.1133 77.3398 12.1133C77.0078 12.1133 76.7083 12.1556 76.4414 12.2402C76.181 12.3184 75.9466 12.4323 75.7383 12.582L75.5137 13.998H73.5801L73.5605 11.3223C74.0944 10.9967 74.6803 10.7363 75.3184 10.541C75.9629 10.3392 76.679 10.2383 77.4668 10.2383C78.8275 10.2383 79.8984 10.5573 80.6797 11.1953C81.4674 11.8268 81.8613 12.735 81.8613 13.9199V18.4219C81.8613 18.5651 81.8613 18.7051 81.8613 18.8418C81.8678 18.9785 81.8809 19.112 81.9004 19.2422L82.9844 19.3984V21H79.6152C79.5436 20.7982 79.4753 20.5931 79.4102 20.3848C79.3516 20.1699 79.3092 19.9551 79.2832 19.7402C78.9382 20.1764 78.5247 20.5312 78.043 20.8047C77.5677 21.0716 77.0176 21.2051 76.3926 21.2051ZM77.0469 19.2031C77.4961 19.2031 77.916 19.099 78.3066 18.8906C78.7038 18.6823 79.0033 18.4186 79.2051 18.0996V16.3809H77.6914C77.0078 16.3809 76.4902 16.5404 76.1387 16.8594C75.7936 17.1719 75.6211 17.543 75.6211 17.9727C75.6211 18.3633 75.7448 18.666 75.9922 18.8809C76.2396 19.0957 76.5911 19.2031 77.0469 19.2031Z" fill="white"/>
</svg>
