<svg width="240" height="439" viewBox="0 0 240 439" fill="none" xmlns="http://www.w3.org/2000/svg">
<g clip-path="url(#clip0_128_1493)">
<path d="M48.3938 155.147C48.3938 155.147 15.2964 144.814 20.3772 161.814C25.458 178.813 53.3357 170.226 53.3357 170.226L48.3938 155.147Z" fill="#E4AD9C"/>
<path d="M174.912 91.3412C174.912 91.3412 157.95 68.1115 141.47 92.2269C124.959 116.39 109.607 136.226 109.607 136.226L68.5984 149.626L44.8735 151.736L51.4091 172.875L120.39 162.846C120.39 162.846 197.188 117.126 174.912 91.3412Z" fill="#0A1033"/>
<path d="M99.203 219.987C99.203 219.987 73.436 238.063 75.1538 254.418C76.8716 270.773 88.0373 315.534 88.0373 315.534L111.228 312.09C111.228 312.09 113.804 277.659 105.215 264.747L146.442 241.506L99.203 219.987Z" fill="#E4AD9C"/>
<path d="M156.32 262.595C156.32 262.595 154.602 294.444 158.896 307.356C163.191 320.268 167.485 368.472 167.485 368.472H191.535C191.535 368.472 202.7 326.293 188.958 307.356C188.958 307.356 184.663 282.393 196.688 270.342L156.32 262.595Z" fill="#E4AD9C"/>
<path d="M150.737 174.365C150.737 174.365 94.9084 209.657 94.9084 220.847L139.571 257.861L155.031 240.645L153.314 266.469L201.412 275.938C201.412 275.938 218.59 210.518 217.731 207.936C216.872 205.353 214.296 167.479 214.296 167.479L150.737 174.365Z" fill="#0A1033"/>
<path d="M111.228 307.787L86.3195 312.951L90.7449 331.185C92.9231 340.159 93.1712 349.495 91.4729 358.573C91.4729 358.573 117.24 365.459 117.24 362.016C117.24 358.573 111.228 344.8 112.945 335.332C114.663 325.863 111.228 307.787 111.228 307.787Z" fill="#495BCC"/>
<path d="M124.111 372.345C123.252 368.902 116.116 353.291 115.819 355.932C115.522 358.573 101.78 362.877 96.6263 357.712C96.6263 357.712 89.7551 351.686 87.1784 357.712C84.6017 363.737 79.4482 374.067 79.4482 374.067C79.4482 374.067 56.258 385.257 59.6936 391.283C60.3884 392.501 62.3136 393.015 64.9419 393.06C64.8803 393.22 64.8481 393.389 64.847 393.56V394.17C64.847 394.546 64.9959 394.906 65.261 395.172C65.526 395.437 65.8856 395.586 66.2604 395.586H66.8691C67.2439 395.586 67.6035 395.437 67.8685 395.172C68.1336 394.906 68.2825 394.546 68.2825 394.17V393.56C68.2812 393.34 68.2283 393.124 68.1282 392.928C68.8306 392.867 69.5594 392.785 70.3086 392.687C70.1102 392.934 70.0015 393.242 70.0003 393.56V394.17C70.0004 394.546 70.1493 394.906 70.4144 395.172C70.6794 395.437 71.039 395.586 71.4138 395.586H72.0225C72.3973 395.586 72.7569 395.437 73.0219 395.172C73.287 394.906 73.4359 394.546 73.4359 394.17V393.56C73.4353 393.308 73.3671 393.06 73.2386 392.843C73.11 392.626 72.9257 392.448 72.7049 392.327C74.6818 391.996 76.7452 391.575 78.7968 391.109C78.6622 391.328 78.5904 391.581 78.5893 391.838V392.448C78.5894 392.824 78.7383 393.184 79.0034 393.45C79.2684 393.716 79.628 393.865 80.0028 393.865H80.6115C80.9863 393.865 81.3459 393.716 81.6109 393.45C81.876 393.184 82.0249 392.824 82.025 392.448V391.838C82.0247 391.564 81.9452 391.297 81.796 391.067C81.6469 390.838 81.4345 390.656 81.1847 390.546C82.7234 390.17 84.2316 389.778 85.6671 389.389C85.5331 389.608 85.4616 389.86 85.4606 390.117V390.727C85.4606 391.102 85.6095 391.463 85.8746 391.728C86.1396 391.994 86.4992 392.143 86.874 392.143H87.4827C87.8575 392.143 88.2171 391.994 88.4821 391.728C88.7472 391.463 88.8961 391.102 88.8962 390.727V390.117C88.8954 389.815 88.7986 389.522 88.6198 389.28C88.4409 389.038 88.1895 388.86 87.9022 388.771C92.9463 387.347 96.6263 386.118 96.6263 386.118C96.6263 386.118 100.9 384.559 106.074 382.454V382.98C106.074 383.355 106.223 383.716 106.488 383.981C106.753 384.247 107.113 384.396 107.488 384.396H108.096C108.471 384.396 108.831 384.247 109.096 383.981C109.361 383.716 109.51 383.355 109.51 382.98V382.37C109.509 382.155 109.46 381.943 109.365 381.751C109.27 381.558 109.133 381.39 108.963 381.258C110.002 380.821 111.05 380.371 112.086 379.913V380.397C112.086 380.773 112.235 381.133 112.5 381.399C112.766 381.665 113.125 381.814 113.5 381.814H114.109C114.483 381.814 114.843 381.665 115.108 381.399C115.373 381.133 115.522 380.773 115.522 380.397V379.787C115.522 379.559 115.467 379.335 115.362 379.133C115.256 378.931 115.104 378.758 114.917 378.628C116.038 378.104 117.117 377.58 118.113 377.067C118.108 377.113 118.099 377.158 118.099 377.205V377.815C118.099 378.191 118.248 378.551 118.513 378.817C118.778 379.082 119.137 379.232 119.512 379.232H120.121C120.496 379.232 120.855 379.082 121.12 378.817C121.385 378.551 121.534 378.191 121.534 377.815V377.205C121.534 376.878 121.422 376.562 121.216 376.309C121.009 376.056 120.722 375.882 120.403 375.817C122.805 374.419 124.319 373.179 124.111 372.345Z" fill="#27282B"/>
<path d="M193.253 364.598L166.043 362.877C166.043 362.877 167.692 391.283 164.394 400.751C161.095 410.22 162.744 413.663 162.744 413.663L186.656 415.385L193.253 364.598Z" fill="#495BCC"/>
<path d="M193.587 427.379C193.464 423.832 189.732 407.073 188.892 409.594C188.052 412.115 173.717 413.452 169.751 407.324C169.751 407.324 164.284 399.995 160.511 405.35C156.737 410.705 149.548 419.73 149.548 419.73C149.548 419.73 124.539 425.828 126.646 432.439C127.072 433.776 128.848 434.681 131.409 435.275C131.315 435.418 131.249 435.577 131.212 435.744L131.085 436.34C131.007 436.708 131.078 437.091 131.282 437.406C131.486 437.722 131.806 437.943 132.173 438.021L132.768 438.148C133.135 438.226 133.517 438.156 133.832 437.951C134.146 437.747 134.367 437.426 134.445 437.058L134.572 436.461C134.617 436.246 134.61 436.024 134.553 435.812C135.252 435.898 135.982 435.971 136.735 436.031C136.49 436.232 136.319 436.51 136.252 436.82L136.125 437.417C136.047 437.784 136.118 438.168 136.322 438.483C136.526 438.798 136.846 439.019 137.213 439.098L137.808 439.225C138.175 439.303 138.557 439.232 138.872 439.028C139.187 438.824 139.407 438.502 139.485 438.135L139.612 437.538C139.664 437.291 139.649 437.035 139.568 436.796C139.488 436.557 139.345 436.344 139.154 436.179C141.156 436.269 143.262 436.289 145.365 436.262C145.188 436.448 145.065 436.68 145.011 436.931L144.884 437.528C144.805 437.896 144.876 438.279 145.08 438.594C145.284 438.909 145.605 439.131 145.971 439.209L146.567 439.336C146.933 439.414 147.316 439.344 147.63 439.139C147.945 438.935 148.166 438.613 148.244 438.246L148.371 437.649C148.427 437.382 148.405 437.103 148.307 436.847C148.209 436.592 148.039 436.37 147.818 436.209C149.401 436.163 150.957 436.095 152.442 436.015C152.266 436.201 152.143 436.432 152.089 436.684L151.962 437.28C151.884 437.648 151.954 438.031 152.158 438.346C152.362 438.662 152.683 438.883 153.05 438.961L153.645 439.088C154.011 439.166 154.394 439.096 154.709 438.891C155.023 438.687 155.244 438.366 155.322 437.998L155.449 437.401C155.511 437.107 155.477 436.8 155.353 436.526C155.228 436.251 155.019 436.024 154.757 435.878C159.986 435.539 163.841 435.106 163.841 435.106C163.841 435.106 168.345 434.475 173.844 433.497L173.734 434.011C173.656 434.378 173.727 434.762 173.931 435.077C174.135 435.392 174.455 435.613 174.822 435.692L175.417 435.819C175.784 435.897 176.166 435.826 176.481 435.622C176.795 435.418 177.016 435.096 177.094 434.729L177.221 434.132C177.265 433.922 177.261 433.705 177.208 433.496C177.156 433.288 177.056 433.095 176.918 432.931C178.025 432.72 179.143 432.499 180.252 432.268L180.152 432.742C180.073 433.109 180.144 433.493 180.348 433.808C180.552 434.123 180.873 434.344 181.239 434.422L181.834 434.55C182.201 434.628 182.584 434.557 182.898 434.353C183.213 434.148 183.433 433.827 183.512 433.46L183.639 432.863C183.686 432.64 183.679 432.409 183.618 432.19C183.557 431.97 183.444 431.769 183.288 431.602C184.493 431.324 185.658 431.038 186.738 430.744C186.724 430.788 186.706 430.83 186.696 430.876L186.569 431.472C186.491 431.84 186.562 432.223 186.765 432.539C186.969 432.854 187.29 433.075 187.657 433.153L188.252 433.28C188.619 433.359 189.001 433.288 189.316 433.083C189.63 432.879 189.851 432.558 189.929 432.19L190.056 431.594C190.124 431.274 190.08 430.941 189.931 430.651C189.782 430.36 189.537 430.13 189.239 430C191.878 429.135 193.617 428.239 193.587 427.379Z" fill="#27282B"/>
<path d="M150.737 62.4631C164.493 62.4631 175.645 51.2869 175.645 37.5003C175.645 23.7138 164.493 12.5376 150.737 12.5376C136.981 12.5376 125.829 23.7138 125.829 37.5003C125.829 51.2869 136.981 62.4631 150.737 62.4631Z" fill="#E4AD9C"/>
<path d="M173.068 34.918C173.068 34.918 186.811 52.1337 193.682 51.2729L163.62 74.514C163.62 74.514 160.185 59.8807 155.89 58.1591C151.596 56.4376 173.068 34.918 173.068 34.918Z" fill="#E4AD9C"/>
<path d="M226.75 162.744C226.75 162.744 226.748 67.76 210.849 59.5779C194.959 51.4004 184.448 46.7332 184.448 46.7332C184.214 49.8498 183.331 52.8826 181.854 55.6356C180.377 58.3885 178.341 60.8004 175.876 62.7154C170.608 66.7918 165.359 70.172 162.427 70.1828L162.332 69.7797L161.975 68.7564L153.314 82.2611C153.314 82.2611 145.584 83.9827 143.007 89.1474C141.613 91.9415 148.187 120.069 144.295 145.529C140.994 167.129 127.082 186.628 126.688 188.998C126.021 193.006 142.93 182.506 150.544 177.598C150.657 177.724 150.737 177.808 150.737 177.808C150.737 177.808 146.443 179.53 155.032 176.947C159.898 175.484 166.693 175.403 171.67 175.607C171.664 177.103 171.699 178.291 171.78 179.099C172.639 187.707 215.584 199.758 221.596 197.176C227.609 194.593 226.75 162.744 226.75 162.744Z" fill="#0A1033"/>
<path d="M196.688 195.454C196.688 195.454 170.921 218.695 188.099 222.999C205.277 227.303 212.148 198.897 212.148 198.897L196.688 195.454Z" fill="#E4AD9C"/>
<path d="M166.627 255.709C166.627 255.709 178.651 244.519 185.522 250.544C192.394 256.57 196.688 260.874 196.688 260.874C196.688 260.874 176.933 248.823 166.627 255.709Z" fill="#E51C44"/>
<path d="M169.75 389.603C169.75 389.603 176.527 383.296 180.4 386.692C184.273 390.088 186.694 392.514 186.694 392.514C186.694 392.514 175.559 385.721 169.75 389.603Z" fill="#E51C44"/>
<path d="M93.8203 330.936C93.8203 330.936 98.4728 322.925 103.164 325.045C107.856 327.165 110.876 328.779 110.876 328.779C110.876 328.779 98.251 325.529 93.8203 330.936Z" fill="#E51C44"/>
<path d="M220.26 71.3883C211.745 54.2363 185.84 63.591 190.049 82.2778C190.112 82.5564 190.178 82.8377 190.246 83.1218C194.683 100.811 201.933 117.669 211.719 133.047L202.271 175.226L191.964 196.745L213.437 201.91L240.063 137.351C240.063 137.351 232.718 96.4871 220.26 71.3883Z" fill="#0A1033"/>
<path opacity="0.2" d="M207.854 134.338L191.535 196.315L205.277 167.048L207.854 134.338Z" fill="black"/>
<path d="M166.38 8.40241C166.38 8.40241 152.612 -6.12461 138.753 3.02395C124.895 12.1725 118.32 21.0595 119.679 27.2473C121.038 33.4351 125.059 42.042 125.059 42.042C125.059 42.042 122.56 29.2227 134.035 28.274C145.511 27.3254 161.365 19.7146 161.365 19.7146L172.089 42.6665C172.089 42.6665 173.605 37.3478 177.808 38.8733C182.011 40.3988 178.753 10.1039 166.38 8.40241Z" fill="#462A00"/>
<path d="M78.1599 336.623C78.159 338.803 77.978 340.98 77.6188 343.13V343.139C76.6325 348.924 74.3478 354.408 70.9373 359.179C67.5268 363.949 63.0795 367.881 57.9311 370.677C52.7827 373.473 47.0678 375.061 41.2177 375.32C35.3676 375.579 29.5353 374.503 24.1609 372.173H24.1523C22.562 371.485 21.0209 370.689 19.54 369.789C14.9499 367.011 10.9857 363.309 7.89853 358.915C4.81137 354.522 2.66864 349.533 1.60613 344.266C1.10808 341.749 0.857802 339.189 0.85889 336.623C0.85889 335.452 0.910418 334.29 1.01349 333.145V333.137C1.90471 323.252 6.54782 314.088 13.9848 307.534C21.4217 300.98 31.085 297.538 40.9808 297.917C50.8766 298.295 60.2498 302.467 67.1663 309.57C74.0828 316.673 78.0149 326.165 78.1513 336.089V336.098C78.1599 336.278 78.1599 336.442 78.1599 336.623Z" fill="#27282B"/>
<path d="M49.0236 323.685H31.7131L23.0574 308.664L28.9283 298.466L29.2714 298.373C36.7036 296.383 44.5531 296.603 51.8628 299.006L52.174 299.11L57.6793 308.664L49.0236 323.685ZM32.7045 321.963H48.0322L55.6956 308.664L51.0152 300.54C44.223 298.382 36.9628 298.176 30.0594 299.945L25.0411 308.664L32.7045 321.963Z" fill="#DCDCE5"/>
<path d="M48.1647 354.674H30.8542L22.1985 339.65L30.8542 324.625H48.1647L56.8204 339.65L48.1647 354.674ZM31.8456 352.952H47.1733L54.8367 339.65L47.1733 326.347H31.8456L24.1822 339.65L31.8456 352.952Z" fill="#DCDCE5"/>
<path d="M39.5095 376.219C34.1111 376.229 28.7689 375.12 23.8186 372.962L22.9358 372.578L31.7127 357.333H49.0236L57.4306 371.927L56.5956 372.329C51.2667 374.903 45.4249 376.233 39.5095 376.219ZM25.3917 371.757C30.1142 373.661 35.1717 374.591 40.2611 374.49C45.3506 374.389 50.3674 373.26 55.0112 371.17L48.0322 359.054H32.7049L25.3917 371.757Z" fill="#DCDCE5"/>
<path d="M77.3672 339.179H60.0567L51.401 324.158L60.0563 309.129H67.9386L68.1927 309.397C75.0284 316.604 78.8925 326.135 79.0103 336.078V336.328L77.3672 339.179ZM61.0481 337.457H76.3758L77.2892 335.873C77.1233 326.57 73.5289 317.657 67.198 310.85H61.0486L53.3847 324.158L61.0481 337.457Z" fill="#DCDCE5"/>
<path d="M59.8181 370.608L51.401 356.007L60.0563 340.978H77.3664L78.4777 342.898L78.4656 343.283C77.5272 348.765 75.4495 353.987 72.3671 358.612C69.2847 363.237 65.2666 367.161 60.5734 370.13L59.8181 370.608ZM53.3847 356.007L60.406 368.186C64.6597 365.354 68.2978 361.688 71.1015 357.41C73.9052 353.132 75.8165 348.33 76.7205 343.293L76.3766 342.7H61.0485L53.3847 356.007Z" fill="#DCDCE5"/>
<path d="M19.8457 370.979L19.0958 370.525C14.4054 367.684 10.3543 363.899 7.19889 359.408C4.04345 354.917 1.85231 349.819 0.764064 344.435L0.700317 344.117L2.51038 340.978H19.8213L28.4766 356.007L19.8457 370.979ZM2.51332 344.414C3.55652 349.356 5.57321 354.04 8.44531 358.191C11.3174 362.342 14.9872 365.877 19.2396 368.59L26.4929 356.007L18.8291 342.7H3.50181L2.51332 344.414Z" fill="#DCDCE5"/>
<path d="M19.821 337.458H2.51089L0.154785 333.376V333.145C1.00281 323.39 5.43807 314.299 12.5992 307.638L12.8466 307.407H19.8214L28.4767 322.437L19.821 337.458ZM3.50148 335.736H18.8296L26.493 322.437L18.8292 309.129H13.5244C6.89804 315.397 2.76546 323.861 1.89358 332.95L3.50148 335.736Z" fill="#DCDCE5"/>
<path d="M185.984 93.2884L185.994 95.2295L186.565 95.5056L187.139 95.7818L188.763 95.0038L190.39 94.2284L190.4 92.7866L190.406 91.3474H188.192H185.978L185.984 93.2884Z" fill="#E51C44"/>
<path d="M193.015 94.0449L191.305 94.9739L191.297 95.5128L191.292 96.0517L192.118 96.4982C192.575 96.7445 193.199 97.0832 193.508 97.25L194.071 97.5554L195.327 96.8728C196.017 96.4982 196.594 96.1825 196.605 96.1723C196.627 96.1517 194.785 93.1314 194.744 93.1211C194.733 93.1185 193.956 93.5343 193.015 94.0449Z" fill="#E51C44"/>
<path d="M182.472 95.6579C181.961 96.568 181.547 97.3133 181.55 97.3161C181.574 97.3356 184.928 99.3177 184.958 99.3289C184.977 99.3372 185.208 99.2172 185.467 99.0637L185.942 98.7817L185.959 97.8549C185.97 97.3468 185.978 96.6126 185.978 96.2246V95.5155L185.877 95.4485C185.676 95.3173 183.448 94.0081 183.424 94.0081C183.41 94.0081 182.983 94.7506 182.472 95.6579Z" fill="#E51C44"/>
<path d="M189.096 97.8315C188.623 98.2106 188.635 98.1807 188.635 98.8891C188.635 99.4079 188.637 99.4478 188.69 99.5509C188.761 99.6973 189.406 100.216 189.515 100.216C189.564 100.216 189.71 100.123 189.938 99.9466C190.416 99.5775 190.406 99.5942 190.406 98.8924C190.406 98.184 190.413 98.2007 189.94 97.8282C189.717 97.6552 189.564 97.5554 189.518 97.5554C189.472 97.5554 189.321 97.6552 189.096 97.8315Z" fill="#E51C44"/>
<path d="M192.768 98.7295L192.194 99.0138L192.187 100.644L192.177 102.272L193.701 103.017C194.538 103.429 195.238 103.764 195.254 103.764C195.297 103.764 197.507 100.511 197.491 100.472C197.484 100.455 196.992 100.204 196.397 99.9114C195.799 99.6187 194.883 99.1699 194.354 98.9107C193.826 98.6514 193.382 98.4396 193.369 98.4424C193.356 98.4424 193.084 98.5706 192.768 98.7295Z" fill="#E51C44"/>
<path d="M183.927 100.901C183.122 101.276 182.448 101.593 182.436 101.603C182.413 101.621 184.498 104.578 184.584 104.65C184.597 104.663 185.51 104.251 186.615 103.737L188.623 102.802L188.633 102.272C188.639 101.868 188.63 101.734 188.601 101.716C188.579 101.701 187.905 101.384 187.107 101.014C186.308 100.641 185.596 100.311 185.523 100.278L185.395 100.216L183.927 100.901Z" fill="#E51C44"/>
<path d="M189.944 102.766L188.647 103.54L188.64 104.983L188.635 106.424H190.406H192.177V104.486V102.548L191.813 102.327C191.61 102.208 191.399 102.083 191.343 102.048L191.24 101.99L189.944 102.766Z" fill="#E51C44"/>
</g>
<defs>
<clipPath id="clip0_128_1493">
<rect width="240" height="439" fill="white"/>
</clipPath>
</defs>
</svg>
